<svg width="687" height="683" viewBox="0 0 687 683" fill="none" xmlns="http://www.w3.org/2000/svg">
<circle cx="472" cy="215" r="215" fill="url(#paint0_linear)"/>
<circle cx="304.056" cy="378.056" r="215" transform="rotate(-135 304.056 378.056)" fill="url(#paint1_linear)"/>
<g clip-path="url(#clip0)">
<path opacity="0.25" d="M555.747 325.86V291.532H535.38V325.86H511.261V272.759H493.573V233.067H479.101V192.303H449.086V233.067H434.615V272.759H417.463V225.022H407.815V200.885H401.919V225.022H367.616V377.353H341.353V361.261H325.273V377.353H299.01V325.86H251.843V291.532H231.476V325.86H230.404V391.835H208.964V353.216H183.237V391.835H161.798V272.759H145.182V233.067H84.0796V272.759H68V482.482H161.798H230.404H299.01H367.616H417.463H511.261H579.867V325.86H555.747Z" fill="#34315E"/>
<path opacity="0.4" d="M100.695 285.096H78.1837V297.969H100.695V285.096Z" fill="white"/>
<path opacity="0.4" d="M128.566 297.969H151.078V285.096H128.566V297.969Z" fill="white"/>
<path opacity="0.4" d="M100.695 310.306H78.1837V323.179H100.695V310.306Z" fill="white"/>
<path opacity="0.4" d="M128.566 323.179H151.078V310.306H128.566V323.179Z" fill="white"/>
<path opacity="0.4" d="M100.695 335.515H78.1837V348.388H100.695V335.515Z" fill="white"/>
<path opacity="0.4" d="M128.566 348.388H151.078V335.515H128.566V348.388Z" fill="white"/>
<path opacity="0.4" d="M100.695 360.725H78.1837V373.598H100.695V360.725Z" fill="white"/>
<path opacity="0.4" d="M128.566 373.598H151.078V360.725H128.566V373.598Z" fill="white"/>
<path opacity="0.4" d="M100.695 385.935H78.1837V398.808H100.695V385.935Z" fill="white"/>
<path opacity="0.4" d="M128.566 398.808H151.078V385.935H128.566V398.808Z" fill="white"/>
<path opacity="0.4" d="M100.695 411.144H78.1837V424.017H100.695V411.144Z" fill="white"/>
<path opacity="0.4" d="M128.566 424.017H151.078V411.144H128.566V424.017Z" fill="white"/>
<path opacity="0.4" d="M100.695 436.354H78.1837V449.227H100.695V436.354Z" fill="white"/>
<path opacity="0.4" d="M128.566 449.227H151.078V436.354H128.566V449.227Z" fill="white"/>
<path opacity="0.4" d="M222.364 404.708H169.837V411.144H222.364V404.708Z" fill="white"/>
<path opacity="0.4" d="M222.364 414.362H169.837V420.799H222.364V414.362Z" fill="white"/>
<path opacity="0.4" d="M222.364 424.017H169.837V430.454H222.364V424.017Z" fill="white"/>
<path opacity="0.4" d="M359.576 407.926H307.05V414.362H359.576V407.926Z" fill="white"/>
<path opacity="0.4" d="M359.576 417.581H307.05V424.017H359.576V417.581Z" fill="white"/>
<path opacity="0.4" d="M359.576 427.236H307.05V433.672H359.576V427.236Z" fill="white"/>
<path opacity="0.4" d="M222.364 433.672H169.837V440.109H222.364V433.672Z" fill="white"/>
<path opacity="0.4" d="M222.364 443.327H169.837V449.763H222.364V443.327Z" fill="white"/>
<path opacity="0.4" d="M222.364 452.982H169.837V459.418H222.364V452.982Z" fill="white"/>
<path opacity="0.4" d="M256.131 338.197H241.659V356.97H256.131V338.197Z" fill="white"/>
<path opacity="0.4" d="M273.283 356.97H287.754V338.197H273.283V356.97Z" fill="white"/>
<path opacity="0.4" d="M256.131 368.234H241.659V387.007H256.131V368.234Z" fill="white"/>
<path opacity="0.4" d="M273.283 387.007H287.754V368.234H273.283V387.007Z" fill="white"/>
<path opacity="0.4" d="M256.131 398.271H241.659V417.044H256.131V398.271Z" fill="white"/>
<path opacity="0.4" d="M273.283 417.044H287.754V398.271H273.283V417.044Z" fill="white"/>
<path opacity="0.4" d="M256.131 428.308H241.659V447.081H256.131V428.308Z" fill="white"/>
<path opacity="0.4" d="M273.283 447.081H287.754V428.308H273.283V447.081Z" fill="white"/>
<path opacity="0.4" d="M386.912 237.358H367.616V262.032H386.912V237.358Z" fill="white"/>
<path opacity="0.4" d="M386.912 272.759H367.616V297.433H386.912V272.759Z" fill="white"/>
<path opacity="0.4" d="M386.912 308.16H367.616V332.833H386.912V308.16Z" fill="white"/>
<path opacity="0.4" d="M386.912 343.561H367.616V368.234H386.912V343.561Z" fill="white"/>
<path opacity="0.4" d="M386.912 378.962H367.616V403.635H386.912V378.962Z" fill="white"/>
<path opacity="0.4" d="M386.912 414.362H367.616V439.036H386.912V414.362Z" fill="white"/>
<path opacity="0.4" d="M500.273 287.778H428.451V308.696H500.273V287.778Z" fill="white"/>
<path opacity="0.4" d="M500.541 332.833H428.719V353.752H500.541V332.833Z" fill="white"/>
<path opacity="0.4" d="M500.809 377.889H428.987V398.808H500.809V377.889Z" fill="white"/>
<path opacity="0.4" d="M501.077 422.945H429.255V443.863H501.077V422.945Z" fill="white"/>
<path opacity="0.4" d="M93.7273 244.331H84.0796V264.714H93.7273V244.331Z" fill="white"/>
<path opacity="0.4" d="M579.867 338.197H555.747V369.307H579.867V338.197Z" fill="white"/>
<path opacity="0.4" d="M579.867 383.253H555.747V414.362H579.867V383.253Z" fill="white"/>
<path opacity="0.4" d="M579.867 428.308H555.747V459.418H579.867V428.308Z" fill="white"/>
<path opacity="0.1" d="M209.865 217.877H206.177C206.526 217.893 206.874 217.838 207.201 217.715C207.528 217.593 207.827 217.405 208.08 217.164C208.332 216.922 208.533 216.632 208.67 216.311C208.808 215.99 208.878 215.644 208.878 215.295C208.878 214.945 208.808 214.599 208.67 214.278C208.533 213.957 208.332 213.667 208.08 213.425C207.827 213.184 207.528 212.996 207.201 212.874C206.874 212.751 206.526 212.696 206.177 212.712H176.307C175.643 212.742 175.016 213.028 174.556 213.509C174.097 213.99 173.841 214.629 173.841 215.295C173.841 215.96 174.097 216.6 174.556 217.081C175.016 217.562 175.643 217.847 176.307 217.877H179.994C179.645 217.861 179.297 217.916 178.97 218.039C178.643 218.162 178.344 218.349 178.092 218.591C177.84 218.832 177.639 219.122 177.501 219.443C177.364 219.765 177.293 220.11 177.293 220.46C177.293 220.809 177.364 221.155 177.501 221.476C177.639 221.798 177.84 222.088 178.092 222.329C178.344 222.571 178.643 222.758 178.97 222.881C179.297 223.003 179.645 223.058 179.994 223.043H174.833C174.169 223.073 173.542 223.358 173.082 223.839C172.623 224.32 172.367 224.96 172.367 225.625C172.367 226.29 172.623 226.93 173.082 227.411C173.542 227.892 174.169 228.178 174.833 228.208H204.703C205.367 228.178 205.994 227.892 206.454 227.411C206.913 226.93 207.169 226.29 207.169 225.625C207.169 224.96 206.913 224.32 206.454 223.839C205.994 223.358 205.367 223.073 204.703 223.043H209.865C210.214 223.058 210.562 223.003 210.889 222.881C211.216 222.758 211.515 222.571 211.767 222.329C212.02 222.088 212.221 221.798 212.358 221.476C212.495 221.155 212.566 220.809 212.566 220.46C212.566 220.11 212.495 219.765 212.358 219.443C212.221 219.122 212.02 218.832 211.767 218.591C211.515 218.349 211.216 218.162 210.889 218.039C210.562 217.916 210.214 217.861 209.865 217.877Z" fill="#252223"/>
<path opacity="0.1" d="M341.718 282.779H338.03C338.379 282.795 338.727 282.74 339.054 282.617C339.381 282.494 339.68 282.307 339.932 282.065C340.185 281.824 340.386 281.534 340.523 281.213C340.66 280.891 340.731 280.545 340.731 280.196C340.731 279.847 340.66 279.501 340.523 279.18C340.386 278.858 340.185 278.568 339.932 278.327C339.68 278.085 339.381 277.898 339.054 277.775C338.727 277.652 338.379 277.597 338.03 277.613H308.159C307.495 277.644 306.868 277.929 306.409 278.41C305.95 278.891 305.694 279.531 305.694 280.196C305.694 280.861 305.95 281.501 306.409 281.982C306.868 282.463 307.495 282.748 308.159 282.779H311.847C311.498 282.763 311.15 282.818 310.823 282.94C310.496 283.063 310.197 283.251 309.945 283.492C309.692 283.733 309.491 284.024 309.354 284.345C309.217 284.666 309.146 285.012 309.146 285.361C309.146 285.711 309.217 286.057 309.354 286.378C309.491 286.699 309.692 286.989 309.945 287.231C310.197 287.472 310.496 287.66 310.823 287.782C311.15 287.905 311.498 287.96 311.847 287.944H306.685C306.337 287.928 305.988 287.983 305.661 288.106C305.334 288.228 305.036 288.416 304.783 288.657C304.531 288.899 304.33 289.189 304.192 289.51C304.055 289.831 303.984 290.177 303.984 290.527C303.984 290.876 304.055 291.222 304.192 291.543C304.33 291.864 304.531 292.155 304.783 292.396C305.036 292.637 305.334 292.825 305.661 292.948C305.988 293.07 306.337 293.125 306.685 293.109H336.556C336.905 293.125 337.253 293.07 337.58 292.948C337.907 292.825 338.206 292.637 338.458 292.396C338.711 292.155 338.912 291.864 339.049 291.543C339.186 291.222 339.257 290.876 339.257 290.527C339.257 290.177 339.186 289.831 339.049 289.51C338.912 289.189 338.711 288.899 338.458 288.657C338.206 288.416 337.907 288.228 337.58 288.106C337.253 287.983 336.905 287.928 336.556 287.944H341.718C342.066 287.96 342.415 287.905 342.742 287.782C343.069 287.66 343.367 287.472 343.62 287.231C343.872 286.989 344.073 286.699 344.211 286.378C344.348 286.057 344.419 285.711 344.419 285.361C344.419 285.012 344.348 284.666 344.211 284.345C344.073 284.024 343.872 283.733 343.62 283.492C343.367 283.251 343.069 283.063 342.742 282.94C342.415 282.818 342.066 282.763 341.718 282.779Z" fill="#252223"/>
<path opacity="0.1" d="M566.296 198.031H562.608C562.957 198.047 563.305 197.992 563.632 197.87C563.959 197.747 564.258 197.559 564.51 197.318C564.763 197.077 564.964 196.786 565.101 196.465C565.238 196.144 565.309 195.798 565.309 195.449C565.309 195.099 565.238 194.753 565.101 194.432C564.964 194.111 564.763 193.821 564.51 193.579C564.258 193.338 563.959 193.15 563.632 193.028C563.305 192.905 562.957 192.85 562.608 192.866H532.738C532.073 192.896 531.447 193.182 530.987 193.663C530.528 194.144 530.272 194.783 530.272 195.449C530.272 196.114 530.528 196.754 530.987 197.235C531.447 197.716 532.073 198.001 532.738 198.031H536.425C536.076 198.015 535.728 198.07 535.401 198.193C535.074 198.316 534.775 198.503 534.523 198.745C534.27 198.986 534.069 199.276 533.932 199.597C533.795 199.919 533.724 200.265 533.724 200.614C533.724 200.963 533.795 201.309 533.932 201.63C534.069 201.952 534.27 202.242 534.523 202.483C534.775 202.725 535.074 202.912 535.401 203.035C535.728 203.158 536.076 203.213 536.425 203.197H531.264C530.915 203.181 530.566 203.236 530.239 203.358C529.912 203.481 529.614 203.669 529.361 203.91C529.109 204.151 528.908 204.441 528.771 204.763C528.633 205.084 528.562 205.43 528.563 205.779C528.562 206.129 528.633 206.474 528.771 206.796C528.908 207.117 529.109 207.407 529.361 207.649C529.614 207.89 529.912 208.078 530.239 208.2C530.566 208.323 530.915 208.378 531.264 208.362H561.134C561.483 208.378 561.831 208.323 562.158 208.2C562.485 208.078 562.784 207.89 563.036 207.649C563.289 207.407 563.49 207.117 563.627 206.796C563.764 206.474 563.835 206.129 563.835 205.779C563.835 205.43 563.764 205.084 563.627 204.763C563.49 204.441 563.289 204.151 563.036 203.91C562.784 203.669 562.485 203.481 562.158 203.358C561.831 203.236 561.483 203.181 561.134 203.197H566.296C566.644 203.213 566.993 203.158 567.32 203.035C567.647 202.912 567.946 202.725 568.198 202.483C568.45 202.242 568.651 201.952 568.789 201.63C568.926 201.309 568.997 200.963 568.997 200.614C568.997 200.265 568.926 199.919 568.789 199.597C568.651 199.276 568.45 198.986 568.198 198.745C567.946 198.503 567.647 198.316 567.32 198.193C566.993 198.07 566.644 198.015 566.296 198.031Z" fill="#252223"/>
<path d="M495.744 179.435C491.226 179.392 486.711 179.664 482.232 180.25C482.232 179.39 481.89 178.564 481.282 177.956C480.674 177.347 479.849 177.005 478.989 177.005C478.129 177.005 477.304 177.347 476.696 177.956C476.088 178.564 475.746 179.39 475.746 180.25C471.267 179.664 466.751 179.392 462.234 179.435C452.238 179.435 444.128 180.508 444.128 181.87C444.128 183.233 452.232 184.305 462.234 184.305C466.751 184.349 471.267 184.076 475.746 183.49C475.746 183.881 475.817 184.268 475.955 184.633C475.662 184.813 475.417 185.061 475.241 185.356C475.064 185.652 474.961 185.985 474.94 186.328C474.919 186.672 474.98 187.015 475.12 187.33C475.259 187.644 475.472 187.92 475.741 188.135C474.954 188.404 474.232 188.833 473.62 189.397C473.008 189.96 472.52 190.645 472.187 191.407C471.29 190.722 470.206 190.327 469.079 190.275L435.413 188.773C434.188 187.133 432.597 185.801 430.767 184.883C428.936 183.966 426.917 183.489 424.87 183.49H403.677C401.614 183.489 399.579 183.974 397.737 184.906C395.895 185.838 394.298 187.19 393.076 188.854L361.099 190.286C360.056 190.332 359.047 190.672 358.188 191.268C357.558 189.917 356.448 188.85 355.074 188.275C355.419 188.055 355.693 187.742 355.866 187.371C356.038 187.001 356.102 186.589 356.048 186.184C355.995 185.779 355.827 185.397 355.564 185.085C355.301 184.772 354.955 184.541 354.565 184.418C354.655 184.117 354.7 183.804 354.699 183.49C359.179 184.076 363.694 184.349 368.211 184.305C378.207 184.305 386.317 183.233 386.317 181.87C386.317 180.508 378.213 179.435 368.211 179.435C363.694 179.392 359.179 179.664 354.699 180.25C354.699 179.397 354.36 178.578 353.757 177.975C353.154 177.371 352.336 177.032 351.483 177.032C350.63 177.032 349.812 177.371 349.209 177.975C348.606 178.578 348.267 179.397 348.267 180.25C343.788 179.664 339.273 179.392 334.755 179.435C324.759 179.435 316.649 180.508 316.649 181.87C316.649 183.233 324.754 184.305 334.755 184.305C339.273 184.349 343.788 184.076 348.267 183.49C348.267 183.881 348.338 184.268 348.476 184.633C348.175 184.818 347.924 185.074 347.746 185.38C347.567 185.686 347.467 186.031 347.455 186.384C347.442 186.738 347.517 187.089 347.673 187.407C347.828 187.724 348.06 187.999 348.348 188.205C347.213 188.633 346.236 189.396 345.546 190.394C344.855 191.391 344.485 192.575 344.483 193.789V197.79C344.485 199.365 345.108 200.877 346.217 201.995C347.326 203.113 348.832 203.747 350.406 203.76H352.78C353.711 203.76 354.629 203.541 355.46 203.122C356.291 202.703 357.013 202.095 357.567 201.346C358.553 202.266 359.842 202.795 361.19 202.832L392.545 203.712C393.546 205.293 394.87 206.644 396.431 207.675C393.429 210.727 381.723 224.26 383.61 248.107C383.61 248.107 385.502 251.621 390.364 248.107C390.364 248.107 387.255 221.535 404.658 210.593C404.953 211.441 405.504 212.175 406.235 212.695C406.966 213.215 407.84 213.495 408.737 213.495H410.962C408.445 214.488 406.353 216.329 405.048 218.701C403.742 221.072 403.304 223.825 403.81 226.484C404.315 229.144 405.731 231.544 407.815 233.27C409.899 234.997 412.52 235.941 415.225 235.941C417.931 235.941 420.551 234.997 422.635 233.27C424.719 231.544 426.136 229.144 426.641 226.484C427.146 223.825 426.708 221.072 425.403 218.701C424.097 216.329 422.006 214.488 419.489 213.495H421.713C422.61 213.495 423.485 213.215 424.215 212.695C424.946 212.175 425.497 211.441 425.792 210.593C443.196 221.535 440.087 248.107 440.087 248.107C444.948 251.621 446.84 248.107 446.84 248.107C448.984 220.795 433.328 207.01 433.328 207.01H433.044C434.197 206.097 435.189 204.999 435.981 203.76L468.987 202.837C470.406 202.805 471.759 202.229 472.766 201.228C473.315 202.02 474.047 202.666 474.901 203.113C475.754 203.559 476.702 203.792 477.665 203.792H480.039C480.824 203.792 481.6 203.637 482.324 203.337C483.049 203.037 483.707 202.597 484.261 202.042C484.816 201.487 485.256 200.828 485.556 200.103C485.856 199.378 486.01 198.601 486.01 197.817V193.815C486.01 192.661 485.676 191.532 485.048 190.564C484.42 189.596 483.526 188.831 482.473 188.36C482.839 188.158 483.138 187.852 483.333 187.481C483.527 187.11 483.609 186.69 483.568 186.273C483.527 185.856 483.365 185.46 483.102 185.134C482.839 184.809 482.486 184.567 482.087 184.44C482.177 184.138 482.222 183.826 482.221 183.512C486.701 184.098 491.216 184.37 495.733 184.327C505.729 184.327 513.839 183.254 513.839 181.892C513.839 180.529 505.745 179.435 495.744 179.435Z" fill="url(#paint2_linear)"/>
<path d="M415.228 234.66C421.279 234.66 426.184 229.752 426.184 223.697C426.184 217.642 421.279 212.733 415.228 212.733C409.177 212.733 404.272 217.642 404.272 223.697C404.272 229.752 409.177 234.66 415.228 234.66Z" fill="#34315E"/>
<path d="M415.228 231.094C419.31 231.094 422.619 227.782 422.619 223.697C422.619 219.612 419.31 216.3 415.228 216.3C411.146 216.3 407.837 219.612 407.837 223.697C407.837 227.782 411.146 231.094 415.228 231.094Z" fill="#34315E"/>
<path opacity="0.2" d="M415.228 231.094C419.31 231.094 422.619 227.782 422.619 223.697C422.619 219.612 419.31 216.3 415.228 216.3C411.146 216.3 407.837 219.612 407.837 223.697C407.837 227.782 411.146 231.094 415.228 231.094Z" fill="#F5F5F5"/>
<path d="M415.228 228.54C417.901 228.54 420.068 226.372 420.068 223.697C420.068 221.022 417.901 218.853 415.228 218.853C412.555 218.853 410.388 221.022 410.388 223.697C410.388 226.372 412.555 228.54 415.228 228.54Z" fill="#34315E"/>
<path opacity="0.25" d="M415.228 228.54C417.901 228.54 420.068 226.372 420.068 223.697C420.068 221.022 417.901 218.853 415.228 218.853C412.555 218.853 410.388 221.022 410.388 223.697C410.388 226.372 412.555 228.54 415.228 228.54Z" fill="black"/>
<path d="M398.151 207.375C398.151 207.375 383.374 220.387 385.411 246.134C385.411 246.134 387.196 249.448 391.784 246.134C391.784 246.134 387.962 213.49 413.443 207.37L398.151 207.375Z" fill="#34315E"/>
<path d="M432.299 207.375C432.299 207.375 447.082 220.387 445.061 246.134C445.061 246.134 443.276 249.448 438.688 246.134C438.688 246.134 442.51 213.49 417.029 207.37L432.299 207.375Z" fill="#34315E"/>
<path d="M424.334 185.185H404.331C397.47 185.185 391.907 190.752 391.907 197.618C391.907 204.485 397.47 210.052 404.331 210.052H424.334C431.196 210.052 436.759 204.485 436.759 197.618C436.759 190.752 431.196 185.185 424.334 185.185Z" fill="#34315E"/>
<path d="M399.256 204.414L364.261 203.433C362.895 203.395 361.597 202.825 360.644 201.844C359.691 200.864 359.158 199.549 359.158 198.182V196.841C359.158 195.489 359.679 194.189 360.613 193.212C361.546 192.235 362.82 191.656 364.17 191.595L399.164 190.023C399.873 189.991 400.58 190.103 401.244 190.353C401.908 190.602 402.514 190.983 403.026 191.473C403.539 191.964 403.947 192.553 404.225 193.205C404.504 193.857 404.648 194.56 404.648 195.269V199.168C404.647 199.87 404.506 200.564 404.233 201.21C403.96 201.856 403.561 202.441 403.058 202.93C402.555 203.419 401.96 203.802 401.307 204.057C400.654 204.312 399.956 204.434 399.256 204.414Z" fill="#34315E"/>
<path d="M430.943 204.414L465.937 203.433C467.304 203.395 468.602 202.825 469.555 201.844C470.508 200.864 471.04 199.549 471.04 198.182V196.841C471.04 195.489 470.519 194.189 469.586 193.212C468.652 192.235 467.378 191.656 466.029 191.595L431.034 190.023C430.326 189.991 429.618 190.103 428.955 190.353C428.291 190.602 427.684 190.983 427.172 191.473C426.66 191.964 426.252 192.553 425.973 193.205C425.694 193.857 425.551 194.56 425.551 195.269V199.168C425.551 199.87 425.692 200.564 425.965 201.21C426.238 201.856 426.638 202.441 427.14 202.93C427.643 203.419 428.238 203.802 428.892 204.057C429.545 204.312 430.242 204.434 430.943 204.414Z" fill="#34315E"/>
<path opacity="0.2" d="M399.256 204.414L364.261 203.433C362.895 203.395 361.597 202.825 360.644 201.844C359.691 200.864 359.158 199.549 359.158 198.182V196.841C359.158 195.489 359.679 194.189 360.613 193.212C361.546 192.235 362.82 191.656 364.17 191.595L399.164 190.023C399.873 189.991 400.58 190.103 401.244 190.353C401.908 190.602 402.514 190.983 403.026 191.473C403.539 191.964 403.947 192.553 404.225 193.205C404.504 193.857 404.648 194.56 404.648 195.269V199.168C404.647 199.87 404.506 200.564 404.233 201.21C403.96 201.856 403.561 202.441 403.058 202.93C402.555 203.419 401.96 203.802 401.307 204.057C400.654 204.312 399.956 204.434 399.256 204.414Z" fill="#F5F5F5"/>
<path opacity="0.2" d="M430.943 204.414L465.937 203.433C467.304 203.395 468.602 202.825 469.555 201.844C470.508 200.864 471.04 199.549 471.04 198.182V196.841C471.04 195.489 470.519 194.189 469.586 193.212C468.652 192.235 467.378 191.656 466.029 191.595L431.034 190.023C430.326 189.991 429.618 190.103 428.955 190.353C428.291 190.602 427.684 190.983 427.172 191.473C426.66 191.964 426.252 192.553 425.973 193.205C425.694 193.857 425.551 194.56 425.551 195.269V199.168C425.551 199.87 425.692 200.564 425.965 201.21C426.238 201.856 426.638 202.441 427.14 202.93C427.643 203.419 428.238 203.802 428.892 204.057C429.545 204.312 430.242 204.434 430.943 204.414Z" fill="#F5F5F5"/>
<path d="M355.98 189.267H354.447C351.14 189.267 348.46 191.949 348.46 195.258V198.321C348.46 201.63 351.14 204.312 354.447 204.312H355.98C359.286 204.312 361.967 201.63 361.967 198.321V195.258C361.967 191.949 359.286 189.267 355.98 189.267Z" fill="#34315E"/>
<path d="M476.009 189.267H474.476C471.169 189.267 468.489 191.949 468.489 195.258V198.321C468.489 201.63 471.169 204.312 474.476 204.312H476.009C479.315 204.312 481.996 201.63 481.996 198.321V195.258C481.996 191.949 479.315 189.267 476.009 189.267Z" fill="#34315E"/>
<path d="M357.379 185.952H353.3C352.175 185.952 351.263 186.865 351.263 187.99V187.996C351.263 189.121 352.175 190.034 353.3 190.034H357.379C358.504 190.034 359.416 189.121 359.416 187.996V187.99C359.416 186.865 358.504 185.952 357.379 185.952Z" fill="#34315E"/>
<path d="M358.145 182.128C358.145 180.436 356.776 179.065 355.088 179.065C353.399 179.065 352.03 180.436 352.03 182.128V185.185C352.03 186.877 353.399 188.248 355.088 188.248C356.776 188.248 358.145 186.877 358.145 185.185V182.128Z" fill="#34315E"/>
<path d="M339.284 185.952C348.715 185.952 356.361 184.924 356.361 183.656C356.361 182.389 348.715 181.361 339.284 181.361C329.853 181.361 322.208 182.389 322.208 183.656C322.208 184.924 329.853 185.952 339.284 185.952Z" fill="#34315E"/>
<path d="M370.886 185.952C380.317 185.952 387.962 184.924 387.962 183.656C387.962 182.389 380.317 181.361 370.886 181.361C361.455 181.361 353.809 182.389 353.809 183.656C353.809 184.924 361.455 185.952 370.886 185.952Z" fill="#34315E"/>
<path d="M477.659 185.952H473.581C472.456 185.952 471.544 186.865 471.544 187.99V187.996C471.544 189.121 472.456 190.034 473.581 190.034H477.659C478.784 190.034 479.696 189.121 479.696 187.996V187.99C479.696 186.865 478.784 185.952 477.659 185.952Z" fill="#34315E"/>
<path d="M478.426 182.128C478.426 180.436 477.057 179.065 475.368 179.065C473.68 179.065 472.311 180.436 472.311 182.128V185.185C472.311 186.877 473.68 188.248 475.368 188.248C477.057 188.248 478.426 186.877 478.426 185.185V182.128Z" fill="#34315E"/>
<path d="M459.57 185.952C469.001 185.952 476.647 184.924 476.647 183.656C476.647 182.389 469.001 181.361 459.57 181.361C450.139 181.361 442.494 182.389 442.494 183.656C442.494 184.924 450.139 185.952 459.57 185.952Z" fill="#34315E"/>
<path d="M491.166 185.952C500.597 185.952 508.243 184.924 508.243 183.656C508.243 182.389 500.597 181.361 491.166 181.361C481.735 181.361 474.09 182.389 474.09 183.656C474.09 184.924 481.735 185.952 491.166 185.952Z" fill="#34315E"/>
<path opacity="0.2" d="M339.284 185.952C348.715 185.952 356.361 184.924 356.361 183.656C356.361 182.389 348.715 181.361 339.284 181.361C329.853 181.361 322.208 182.389 322.208 183.656C322.208 184.924 329.853 185.952 339.284 185.952Z" fill="#F5F5F5"/>
<path opacity="0.2" d="M370.886 185.952C380.317 185.952 387.962 184.924 387.962 183.656C387.962 182.389 380.317 181.361 370.886 181.361C361.455 181.361 353.809 182.389 353.809 183.656C353.809 184.924 361.455 185.952 370.886 185.952Z" fill="#F5F5F5"/>
<path opacity="0.2" d="M459.57 185.952C469.001 185.952 476.647 184.924 476.647 183.656C476.647 182.389 469.001 181.361 459.57 181.361C450.139 181.361 442.494 182.389 442.494 183.656C442.494 184.924 450.139 185.952 459.57 185.952Z" fill="#F5F5F5"/>
<path opacity="0.2" d="M491.166 185.952C500.597 185.952 508.243 184.924 508.243 183.656C508.243 182.389 500.597 181.361 491.166 181.361C481.735 181.361 474.09 182.389 474.09 183.656C474.09 184.924 481.735 185.952 491.166 185.952Z" fill="#F5F5F5"/>
<path d="M421.344 205.331H409.112C406.86 205.331 405.033 207.158 405.033 209.411C405.033 211.663 406.86 213.49 409.112 213.49H421.344C423.596 213.49 425.422 211.663 425.422 209.411C425.422 207.158 423.596 205.331 421.344 205.331Z" fill="#34315E"/>
<path opacity="0.2" d="M421.344 205.331H409.112C406.86 205.331 405.033 207.158 405.033 209.411C405.033 211.663 406.86 213.49 409.112 213.49H421.344C423.596 213.49 425.422 211.663 425.422 209.411C425.422 207.158 423.596 205.331 421.344 205.331Z" fill="#F5F5F5"/>
<path d="M433.735 247.721H388.332V293.158H433.735H445.334V247.721H433.735Z" fill="#67647E"/>
<path opacity="0.25" d="M445.34 247.721H433.735V293.158H445.34V247.721Z" fill="black"/>
<path opacity="0.25" d="M402.455 255.295H393.88V259.838H402.455V255.295Z" fill="black"/>
<path d="M413.143 242.379C415.072 245.114 414.751 248.638 414.751 248.638C414.751 248.638 411.331 247.732 409.391 244.996C407.451 242.261 406.711 239.461 407.783 238.737C408.855 238.013 411.213 239.638 413.143 242.379Z" fill="#67647E"/>
<path d="M416.407 242.379C414.478 245.114 414.799 248.638 414.799 248.638C414.799 248.638 418.219 247.732 420.159 244.996C422.099 242.261 422.839 239.461 421.767 238.737C420.695 238.013 418.337 239.638 416.407 242.379Z" fill="#67647E"/>
<path d="M177.325 366.598L177.266 366.781C177.291 366.722 177.311 366.661 177.325 366.598Z" fill="url(#paint3_linear)"/>
<path d="M349.864 514.965C349.902 514.912 349.939 514.863 349.966 514.81L350.025 514.697C350.052 514.643 350.084 514.595 350.106 514.541L350.148 514.429C350.148 514.375 350.191 514.322 350.207 514.268C350.224 514.214 350.207 514.198 350.234 514.161C350.261 514.123 350.261 514.053 350.272 513.994C350.282 513.935 350.272 513.93 350.272 513.892C350.272 513.855 350.272 513.78 350.272 513.721C350.272 513.662 350.272 513.662 350.272 513.63C350.272 513.597 350.272 513.512 350.272 513.453C350.272 513.394 350.272 513.399 350.272 513.372C350.272 513.345 350.272 513.249 350.272 513.19V513.12C350.272 513.056 350.272 512.991 350.229 512.927V512.868C350.229 512.798 350.186 512.734 350.165 512.664V512.621C350.14 512.55 350.111 512.48 350.079 512.412V512.38C350.047 512.305 350.011 512.231 349.972 512.16L349.843 511.929C349.349 511.163 348.727 510.489 348.005 509.934C342.479 512.214 335.677 509.607 335.677 509.607C335.677 509.607 326.565 505.053 327.224 506.351C327.444 506.791 327.332 507.665 327.085 508.641C322.722 507.724 320.315 505.38 319.008 503.277L323.976 497.914C323.976 497.914 303.818 486.526 301.545 480.669C299.273 474.812 288.215 458.222 288.215 458.222C288.215 458.222 284.64 445.209 278.139 442.281C278.139 442.281 265.173 426.78 257.6 413.488C260.28 406.789 264.032 396.324 263.185 391.856C262.113 386.289 263.222 375.765 263.667 372.042C267.264 375.046 281.891 386.938 287.567 386.653C289.609 386.551 291.806 385.457 293.87 383.998C298.78 380.887 303.175 375.266 303.175 375.266C302.51 375.33 301.969 374.73 301.529 373.711C306.959 367.81 318.204 355.667 319.431 355.42C321.039 355.093 329.835 339.806 324.957 336.55C320.08 333.295 311.306 345.009 310.979 347.278C310.759 348.823 303.957 355.602 299.605 359.808C299.605 359.7 299.605 359.641 299.605 359.641L298.962 359.963C298.962 359.759 298.962 359.641 298.962 359.641L287.733 365.257L278.155 352.159C278.155 352.159 275.555 338.17 269.043 335.891C262.531 333.611 257.723 326.59 257.723 326.59C257.663 326.818 257.614 327.049 257.578 327.282C257.251 326.847 257.074 326.59 257.074 326.59C257.074 326.59 257.074 326.649 257.032 326.745C256.541 324.743 256.415 322.667 256.662 320.62L256.753 320.566C256.79 320.314 256.833 320.073 256.876 319.842C260.201 317.824 262.694 314.681 263.902 310.982C265.11 307.283 264.955 303.274 263.463 299.68C265.12 298.521 267.521 297.803 269.563 296.923C272.451 295.744 274.98 293.83 276.901 291.371C275.782 291.091 274.609 291.115 273.502 291.441C273.363 289.934 275.11 288.223 273.749 287.075C272.913 286.362 271.353 286.426 270.163 286.78C268.973 287.134 267.885 287.713 266.62 287.853C264.417 288.121 262.332 287.054 260.762 285.9C259.192 284.747 257.712 283.396 255.611 282.848C251.436 281.776 247.298 284.248 243.107 285.3C236.375 286.984 232.387 288.786 232.06 293.077C231.194 293.66 230.395 294.338 229.68 295.099C228.233 296.358 227.233 298.051 226.829 299.927C226.261 302.845 227.44 305.827 228.866 308.423C229.675 309.909 233.566 317.606 236.209 316.592C236.94 317.433 237.755 318.197 238.642 318.871C238.556 319.756 238.433 320.652 238.294 321.553C237.697 321.879 237.05 322.102 236.38 322.213C234.925 322.483 233.448 322.613 231.969 322.599C229.656 322.582 227.347 322.441 225.049 322.176C222.816 321.917 220.57 321.788 218.323 321.789C217.202 321.786 216.082 321.839 214.967 321.95H214.796L214.131 322.031H214.029L213.306 322.149H213.225L212.636 322.267L212.502 322.294L211.902 322.438L211.312 322.605L211.215 322.631L210.755 322.776L210.653 322.808C210.304 322.926 209.977 323.055 209.666 323.184L209.57 323.227L209.184 323.393L209.114 323.425L208.68 323.629H208.643L208.268 323.817L208.176 323.865L207.812 324.053L207.351 324.294L207.072 324.439L206.944 324.509L206.563 324.702C203.31 326.311 171.778 334.786 166.252 351.703L166.364 351.805L166.487 351.918C166.396 352.164 166.305 352.411 166.225 352.658C166.225 352.658 166.761 353.141 167.597 353.924C166.112 360.392 162.135 376.923 160.045 377.707C157.445 378.683 154.519 398.529 161.347 397.88C168.176 397.231 168.176 381.29 168.176 381.29C168.176 381.29 172.678 369.21 175.996 363.08C176.568 363.843 177.008 364.697 177.298 365.606V365.676V365.611C177.379 365.89 177.392 366.184 177.336 366.469C177.657 365.525 179.324 361.192 182.803 361.771C186.517 362.393 200.549 348.56 201.879 347.235C201.846 347.594 201.804 348.045 201.761 348.565C201.761 348.871 201.707 349.198 201.68 349.552V349.665V349.933V350.11V350.384V350.577V350.85V351.097L201.653 351.499V351.826V352.057V352.384V352.604V352.947V353.178V353.554V353.768L201.616 354.358V354.439L201.584 354.975V355.163V355.613V355.828V356.289V356.482L201.557 357.019V357.126C201.557 357.358 201.546 357.592 201.525 357.828V357.871C201.525 358.086 201.516 358.3 201.498 358.515V358.703V359.239V359.454C201.498 359.632 201.498 359.811 201.498 359.99V360.172C201.498 360.662 201.482 361.158 201.45 361.658V361.765C201.45 361.976 201.45 362.187 201.45 362.398V362.591C201.45 362.781 201.45 362.97 201.45 363.16V363.358C201.45 363.566 201.45 363.775 201.45 363.986V364.109C201.45 364.621 201.45 365.136 201.45 365.654C201.45 365.708 201.45 365.761 201.45 365.82C201.45 366.021 201.45 366.221 201.45 366.421C201.45 366.489 201.45 366.559 201.45 366.63C201.45 366.82 201.45 367.011 201.45 367.204C201.45 367.258 201.45 367.312 201.45 367.365C201.45 374.461 201.884 381.686 203.476 385.806C204.321 388.02 204.77 390.366 204.805 392.736C204.655 397.021 203.533 401.215 201.525 405.003L201.905 404.885L201.836 405.008L202.045 404.944C201.723 405.614 201.509 405.984 201.509 405.984C201.509 405.984 201.98 405.834 202.822 405.587C201.621 409.825 200.823 416.347 203.133 424.532C203.133 424.532 204.435 431.687 203.46 434.294C202.484 436.901 201.509 457.718 201.509 457.718C201.509 457.718 199.558 460.319 195.983 458.694C192.408 457.069 148.521 451.539 148.521 451.539C148.521 451.539 148.419 451.716 148.248 452.032C146.897 451.608 144.952 450.959 143.531 450.364C144.067 449.624 144.544 449.2 144.946 449.259C144.946 449.259 142.604 448.127 140.053 447.232L139.586 447.071L139.131 446.921H139.099L138.664 446.786H138.616L138.22 446.674H138.139L137.764 446.577H137.667L137.308 446.497H137.207L136.885 446.432H136.762L136.472 446.384H136.333L136.07 446.352H135.925H135.679H135.18H134.982H134.854L134.677 446.389H134.559L134.409 446.443L134.301 446.481C134.253 446.505 134.207 446.531 134.162 446.561L134.082 446.609C134.016 446.657 133.957 446.713 133.905 446.776C132.297 448.728 123.185 486.14 127.403 488.742L127.768 488.962L127.918 489.047L128.111 489.155L128.298 489.251L128.432 489.321L128.636 489.418L128.738 489.466L128.947 489.557L129.022 489.589L129.236 489.67H129.285L129.504 489.739H129.531C131.89 490.378 132.672 488.195 135.529 483.517C138.327 478.937 141.923 473.16 145.064 471.02C145.134 471.175 145.203 471.331 145.278 471.481C145.278 471.481 178.113 475.059 190.141 478.99C202.168 482.922 211.58 488.109 219.4 478.99C226.4 470.821 233.395 444.33 234.761 438.961L234.965 438.156V438.086V438.017L260.971 457.863L272.35 471.202C272.35 471.202 288.28 493.65 291.206 493.977C294.133 494.304 307.312 515.786 307.312 515.786L307.806 515.249C307.923 515.845 308.015 516.392 308.084 516.859C307.012 519.439 308.004 522.549 308.979 524.598L309.022 524.684L309.135 524.91L309.194 525.028L309.301 525.237L309.355 525.339L309.467 525.553L309.526 525.655L309.612 525.811L309.655 525.891L309.767 526.084L309.816 526.165L309.885 526.277L309.923 526.342L310.008 526.481L310.041 526.535L310.094 526.615V526.653L310.148 526.739L310.18 526.781C310.18 526.781 344.317 518.65 348.541 516.054C348.674 515.974 348.798 515.888 348.916 515.802L349.023 515.716L349.237 515.544L349.344 515.443L349.511 515.287L349.607 515.174L349.736 515.024L349.864 514.965Z" fill="url(#paint4_linear)"/>
<path d="M151.609 451.426C151.609 451.426 144.008 449.205 143.692 448.256C143.376 447.307 137.04 465.683 137.04 465.683L143.376 470.119C143.376 470.119 150.027 466.316 153.511 466.949C156.995 467.582 151.609 451.426 151.609 451.426Z" fill="#4C4C56"/>
<path d="M315.32 496.739C315.32 496.739 316.269 505.321 326.721 506.244C337.172 507.166 319.753 514.826 319.753 514.826L306.455 515.775C306.455 515.775 306.139 510.411 303.92 506.271C301.701 502.13 315.32 496.739 315.32 496.739Z" fill="#4C4C56"/>
<path d="M205.443 400.406C205.443 400.406 199.429 409.594 203.546 424.173C203.546 424.173 204.811 431.146 203.862 433.677C202.913 436.209 201.964 456.495 201.964 456.495C201.964 456.495 200.067 459.032 196.605 457.444C193.142 455.857 150.376 450.471 150.376 450.471C150.376 450.471 143.408 462.513 147.208 469.781C147.208 469.781 179.19 473.267 190.907 477.07C202.624 480.873 211.81 485.942 219.405 477.07C227 468.199 234.606 437.142 234.606 437.142L259.937 456.452L271.021 469.443C271.021 469.443 286.538 491.306 289.389 491.622C292.241 491.939 305.538 512.852 305.538 512.852L321.688 495.425C321.688 495.425 302.022 484.381 299.809 478.674C297.595 472.967 286.827 456.811 286.827 456.811C286.827 456.811 283.343 444.137 277.013 441.283C277.013 441.283 254.212 414.03 251.999 401.355C249.785 388.681 213.992 394.71 213.992 394.71L205.443 400.406Z" fill="#5F5D7E"/>
<path d="M323.236 510.031C323.236 510.031 325.455 504.962 324.844 503.691C324.233 502.419 333.04 506.877 333.04 506.877C333.04 506.877 339.691 509.414 345.073 507.193C345.073 507.193 349.821 510.68 345.705 513.211C341.589 515.743 308.341 523.671 308.341 523.671C308.341 523.671 303.276 516.381 307.393 512.262L323.236 510.031Z" fill="#986365"/>
<path opacity="0.1" d="M299.809 478.674C297.59 472.972 286.827 456.811 286.827 456.811C286.827 456.811 283.343 444.137 277.013 441.283C277.013 441.283 254.212 414.03 251.999 401.355C251.543 398.743 249.656 396.925 246.955 395.686L242.538 408.961L236.509 427.091C235.346 430.588 234.241 434.487 234.365 438.103C234.52 437.502 234.6 437.169 234.6 437.169L259.931 456.479L271.015 469.47C271.015 469.47 286.532 491.332 289.384 491.649C292.235 491.965 305.533 512.879 305.533 512.879L321.682 495.452C321.682 495.452 302.022 484.381 299.809 478.674Z" fill="black"/>
<path d="M257.053 318.968C257.053 318.968 254.373 325.78 257.846 332.12C261.319 338.46 256.42 349.708 253.253 350.357C250.085 351.006 237.42 342.751 236.471 337.366C235.522 331.98 240.587 320.888 238.079 313.599L257.053 318.968Z" fill="#FDC2CC"/>
<path opacity="0.1" d="M239.955 330.693C239.955 330.693 249.769 350.657 260.537 336.395C260.537 336.395 271.305 358.258 267.821 361.744C265.344 364.156 262.698 366.39 259.905 368.427L254.207 408.355C254.207 408.355 221.908 397.263 208.294 399.167L229.198 349.102L239.955 330.693Z" fill="black"/>
<path d="M239.955 329.744C239.955 329.744 249.769 349.708 260.537 335.445C260.537 335.445 271.305 357.308 267.821 360.795C265.343 363.198 262.697 365.422 259.905 367.451L254.207 407.379C254.207 407.379 221.908 396.287 208.294 398.191L229.198 348.125L239.955 329.744Z" fill="#D39999"/>
<path d="M169.977 352.872C169.977 352.872 164.617 377.589 162.06 378.538C159.504 379.487 156.7 398.818 163.325 398.185C169.95 397.552 169.977 382.024 169.977 382.024C169.977 382.024 176.945 363.326 179.791 361.106C182.637 358.885 169.977 352.872 169.977 352.872Z" fill="#FDC2CC"/>
<path d="M294.422 364.281C294.422 364.281 308.674 350.974 308.99 348.753C309.306 346.532 317.855 335.129 322.604 338.294C327.353 341.458 318.804 356.353 317.244 356.675C315.684 356.997 296.979 377.594 296.979 377.594L294.422 364.281Z" fill="#FDC2CC"/>
<path opacity="0.1" d="M238.529 324.514C238.529 324.514 236.787 326.574 225.071 325.308C213.354 324.042 210.503 326.257 207.34 327.845C204.178 329.433 173.461 337.666 168.074 354.127C168.074 354.127 180.107 364.903 178.842 367.751C178.842 367.751 180.45 362.388 184.202 362.999C187.954 363.611 202.886 348.737 202.886 348.737C202.886 348.737 200.035 376.628 203.835 386.444C207.635 396.26 201.938 406.092 201.938 406.092C201.938 406.092 228.855 397.51 240.888 401.656C240.888 401.656 247.856 370.283 241.836 357.609C235.817 344.934 244.372 332.892 244.372 332.892L238.529 324.514Z" fill="black"/>
<path opacity="0.1" d="M238.846 323.565C238.846 323.565 237.104 325.624 225.387 324.359C213.67 323.093 210.819 325.308 207.656 326.896C204.494 328.483 173.777 336.717 168.39 353.178C168.39 353.178 180.423 363.954 179.158 366.802C179.158 366.802 180.766 361.438 184.518 362.05C188.27 362.661 203.202 347.788 203.202 347.788C203.202 347.788 200.351 375.679 204.151 385.495C207.951 395.31 202.259 405.158 202.259 405.158C202.259 405.158 229.176 396.576 241.209 400.722C241.209 400.722 248.177 369.35 242.158 356.675C236.139 344.001 244.704 331.954 244.704 331.954L238.846 323.565Z" fill="black"/>
<path d="M238.529 323.565C238.529 323.565 236.787 325.624 225.071 324.359C213.354 323.093 210.503 325.308 207.34 326.896C204.178 328.483 173.461 336.717 168.074 353.178C168.074 353.178 180.107 363.954 178.842 366.802C178.842 366.802 180.45 361.438 184.202 362.05C187.954 362.661 202.886 347.788 202.886 347.788C202.886 347.788 200.035 375.679 203.835 385.495C207.635 395.31 201.938 405.142 201.938 405.142C201.938 405.142 228.855 396.56 240.888 400.706C240.888 400.706 247.856 369.334 241.836 356.659C235.817 343.985 244.388 331.954 244.388 331.954L238.529 323.565Z" fill="#EC7580"/>
<path opacity="0.1" d="M256.265 329.272C256.265 329.272 260.859 336.084 267.189 338.304C273.519 340.525 276.054 354.149 276.054 354.149L285.551 367.14L296.952 361.454C296.952 361.454 297.268 376.982 300.436 376.666C300.436 376.666 292.519 386.809 286.184 387.125C279.849 387.442 262.124 372.182 262.124 372.182C262.124 372.182 260.226 386.128 261.491 392.779C262.756 399.43 253.575 419.715 253.575 419.715L240.909 417.178C240.909 417.178 247.561 391.829 255.794 387.71C255.794 387.71 255.794 370.6 254.529 366.48C253.264 362.361 262.761 346.833 261.496 343.663C260.784 341.887 257.996 338.084 256.587 334.63C255.94 332.918 255.828 331.049 256.265 329.272Z" fill="black"/>
<path opacity="0.1" d="M257.214 328.634C257.214 328.634 261.807 335.445 268.137 337.666C274.467 339.887 277.003 353.511 277.003 353.511L286.5 366.502L297.901 360.8C297.901 360.8 298.217 376.328 301.385 376.012C301.385 376.012 293.468 386.154 287.133 386.471C280.797 386.787 263.067 371.576 263.067 371.576C263.067 371.576 261.169 385.522 262.434 392.173C263.699 398.824 254.518 419.109 254.518 419.109L241.853 416.572C241.853 416.572 248.504 391.223 256.737 387.104C256.737 387.104 256.737 369.993 255.472 365.874C254.207 361.755 263.705 346.227 262.44 343.057C261.727 341.281 258.94 337.478 257.53 334.024C256.878 332.301 256.768 330.421 257.214 328.634Z" fill="black"/>
<path d="M256.581 328.634C256.581 328.634 261.175 335.445 267.505 337.666C273.835 339.887 276.37 353.511 276.37 353.511L285.873 366.502L297.273 360.8C297.273 360.8 297.59 376.328 300.757 376.012C300.757 376.012 292.841 386.154 286.505 386.471C280.17 386.787 262.44 371.576 262.44 371.576C262.44 371.576 260.542 385.522 261.807 392.173C263.072 398.824 253.891 419.109 253.891 419.109L241.225 416.572C241.225 416.572 247.877 391.223 256.11 387.104C256.11 387.104 256.11 369.993 254.845 365.874C253.58 361.755 263.077 346.227 261.813 343.057C261.1 341.281 258.313 337.478 256.903 334.024C256.249 332.302 256.137 330.421 256.581 328.634Z" fill="#EC7580"/>
<path opacity="0.05" d="M257.117 329.17C257.117 329.17 261.711 335.982 268.041 338.202C274.371 340.423 276.906 354.047 276.906 354.047L286.409 367.038L297.81 361.336C297.81 361.336 298.126 376.864 301.293 376.548C301.293 376.548 293.377 386.691 287.042 387.007C280.706 387.324 262.976 372.112 262.976 372.112C262.976 372.112 261.078 386.058 262.343 392.709C263.608 399.36 254.427 419.646 254.427 419.646L241.761 417.109C241.761 417.109 248.413 391.76 256.646 387.64C256.646 387.64 256.646 370.53 255.381 366.41C254.116 362.291 263.614 346.763 262.349 343.593C261.636 341.818 258.849 338.015 257.439 334.56C256.785 332.838 256.673 330.958 257.117 329.17Z" fill="black"/>
<path d="M146.86 448.256C146.86 448.256 137.678 443.82 136.092 445.719C134.505 447.618 125.64 484.059 129.756 486.596C133.873 489.133 134.189 487.229 137.673 481.528C141.157 475.826 145.906 468.22 149.39 468.536C149.39 468.536 139.254 465.05 139.576 463.784C139.897 462.518 144.646 447.94 146.86 448.256Z" fill="#986365"/>
<path opacity="0.1" d="M238.631 321.763C241.14 323.665 244.159 324.776 247.302 324.953C250.445 325.129 253.57 324.364 256.276 322.755C256.429 321.676 256.691 320.616 257.058 319.59L238.058 314.226C238.84 316.463 238.894 319.081 238.631 321.763Z" fill="black"/>
<path d="M250.38 309.367C254.239 309.699 258.956 308.975 260.376 306.347C260.789 305.591 260.875 304.738 261.293 304.003C262.504 301.825 265.967 300.935 268.748 299.712C271.56 298.564 274.023 296.7 275.893 294.305C274.802 294.033 273.659 294.057 272.581 294.375C272.447 292.911 274.135 291.237 272.822 290.122C272.007 289.43 270.49 289.494 269.327 289.837C268.164 290.181 267.114 290.744 265.875 290.91C263.732 291.173 261.7 290.132 260.167 289.006C258.634 287.88 257.198 286.566 255.15 286.035C251.088 284.962 247.052 287.402 242.973 288.421C234.606 290.519 230.549 292.793 232.821 300.071C234.504 305.462 243.359 308.761 250.38 309.367Z" fill="#865A61"/>
<path d="M248.188 324.353C256.932 324.353 264.021 317.259 264.021 308.509C264.021 299.758 256.932 292.664 248.188 292.664C239.443 292.664 232.355 299.758 232.355 308.509C232.355 317.259 239.443 324.353 248.188 324.353Z" fill="#FDC2CC"/>
<path opacity="0.1" d="M235.882 306.095C236.648 302.984 238.862 300.082 241.944 299.219C244.565 298.484 247.352 299.283 249.914 300.211C252.476 301.139 255.086 302.222 257.803 302.061C260.521 301.901 263.372 300.023 263.576 297.309C263.625 296.889 263.557 296.464 263.378 296.081C263.101 295.63 262.711 295.26 262.247 295.008C258.264 292.466 253.735 290.465 249.013 290.54C245.127 290.604 241.413 292.063 237.8 293.501C233.245 295.314 228.062 297.851 227.124 302.668C226.588 305.51 227.719 308.401 229.107 310.944C229.911 312.413 233.802 320.127 236.375 318.855C237.415 318.362 235.389 308.09 235.882 306.095Z" fill="black"/>
<path d="M236.514 305.462C237.28 302.351 239.494 299.449 242.576 298.586C245.197 297.851 247.984 298.65 250.546 299.578C253.108 300.506 255.718 301.589 258.436 301.428C261.153 301.268 264.005 299.39 264.208 296.676C264.258 296.256 264.189 295.831 264.01 295.448C263.733 294.997 263.343 294.627 262.879 294.375C258.897 291.833 254.368 289.832 249.646 289.907C245.76 289.972 242.045 291.43 238.433 292.868C233.877 294.681 228.694 297.218 227.756 302.035C227.22 304.877 228.351 307.768 229.739 310.311C230.543 311.781 234.434 319.494 237.007 318.222C238.047 317.729 236.026 307.457 236.514 305.462Z" fill="#865A61"/>
<path opacity="0.5" d="M130.71 486.918C126.594 484.381 135.459 447.94 137.046 446.041C137.737 445.209 139.892 445.59 142.095 446.288C139.597 445.413 136.89 444.77 136.097 445.751C134.489 447.65 125.645 484.091 129.762 486.628C130.462 487.105 131.237 487.458 132.056 487.674C131.591 487.452 131.142 487.2 130.71 486.918Z" fill="white"/>
<path opacity="0.5" d="M346.874 509.14C347.302 510.213 347.174 511.495 345.4 512.584C341.283 515.121 308.036 523.043 308.036 523.043C307.705 522.547 307.403 522.033 307.13 521.504C307.484 522.257 307.892 522.983 308.352 523.676C308.352 523.676 341.583 515.754 345.716 513.217C347.844 511.908 347.602 510.342 346.874 509.14Z" fill="white"/>
<g opacity="0.05">
<path opacity="0.05" d="M180.536 363.643C177.904 359.405 170.636 352.872 170.636 352.872C175.996 336.395 206.735 328.156 209.902 326.59C211.65 325.715 213.3 324.648 216.398 324.08C211.575 324.434 209.543 325.817 207.372 326.906C204.205 328.515 173.493 336.727 168.106 353.189C168.106 353.189 179.673 363.546 178.928 366.636C179.288 365.553 179.832 364.54 180.536 363.643Z" fill="black"/>
<path opacity="0.05" d="M178.901 366.641L178.842 366.818C178.867 366.761 178.887 366.702 178.901 366.641Z" fill="black"/>
<path opacity="0.05" d="M238.894 324.085L238.529 323.549C238.529 323.549 238.127 324.021 236.423 324.374C237.252 324.334 238.078 324.237 238.894 324.085Z" fill="black"/>
<path opacity="0.05" d="M184.572 362.082C185.05 362.036 185.518 361.909 185.954 361.706C185.472 361.733 185.001 361.861 184.572 362.082Z" fill="black"/>
<path opacity="0.05" d="M225.768 400.009C231.433 399.387 236.964 399.376 240.904 400.722C240.904 400.722 240.979 400.39 241.102 399.794C236.782 398.953 231.235 399.247 225.768 400.009Z" fill="black"/>
<path opacity="0.05" d="M204.768 404.327C205.84 402.181 209.683 393.696 206.375 385.194C202.575 375.373 205.427 347.487 205.427 347.487C205.427 347.487 204.355 348.56 202.683 350.169C202.098 357.083 200.715 377.438 203.846 385.532C207.646 395.353 201.948 405.18 201.948 405.18C201.948 405.18 203.004 404.826 204.768 404.327Z" fill="black"/>
</g>
<path opacity="0.1" d="M488.519 506.995C484.702 508.963 480.704 510.663 476.759 512.358C462.186 518.516 447.392 524.727 431.736 526.841C402.354 530.804 372.006 520.071 343.122 526.749C318.922 532.338 298.908 549.465 275.266 557.092C264.273 560.638 252.835 562.027 241.295 562.027H239.778C238.349 562.009 236.93 561.973 235.522 561.92C223.822 561.48 212.073 559.747 200.603 557.532C164.386 550.559 127.527 537.777 99.8375 514.246C180.466 499.48 346.541 476.856 488.519 506.995Z" fill="#252223"/>
<path d="M402.975 414.942C402.975 414.942 413.384 425.358 407.51 440.817C401.635 456.275 417.586 481.983 417.586 481.983L417.099 481.903C395.718 478.148 385.095 453.657 396.983 435.48C401.4 428.716 405.028 420.788 402.975 414.942Z" fill="#34315E"/>
<path d="M402.975 414.942C402.975 414.942 408.871 427.713 402.975 438.129C397.08 448.546 401.968 477.784 417.581 481.983" stroke="#535461" stroke-miterlimit="10"/>
<path d="M384.436 457.074C384.436 457.074 396.313 455.181 397.396 465.833C398.478 476.486 420.239 477.961 420.239 477.961L419.832 478.234C401.866 490.034 384.693 485.743 387.282 470.081C388.246 464.256 388.161 458.404 384.436 457.074Z" fill="#34315E"/>
<path opacity="0.2" d="M384.436 457.074C384.436 457.074 396.313 455.181 397.396 465.833C398.478 476.486 420.239 477.961 420.239 477.961L419.832 478.234C401.866 490.034 384.693 485.743 387.282 470.081C388.246 464.256 388.161 458.404 384.436 457.074Z" fill="#F5F5F5"/>
<path d="M384.436 457.074C384.436 457.074 393.655 459.102 392.899 467.491C392.143 475.879 406.593 485.937 420.234 477.966" stroke="#535461" stroke-miterlimit="10"/>
<path d="M429.839 479.993C429.839 479.993 422.367 478.497 420.379 476.507C418.39 474.517 409.423 471.025 408.426 473.519C407.429 476.014 394.978 484.483 403.447 485.979C411.915 487.476 423.369 487.975 425.856 486.977C428.343 485.979 429.839 479.993 429.839 479.993Z" fill="#A8A8A8"/>
<path opacity="0.2" d="M403.442 485.046C411.91 486.543 423.364 487.041 425.851 486.044C427.748 485.282 429.067 481.64 429.603 479.94L429.85 479.993C429.85 479.993 428.354 485.974 425.867 486.966C423.38 487.959 411.932 487.465 403.458 485.969C401.014 485.54 400.317 484.526 400.579 483.239C400.772 484.081 401.646 484.724 403.442 485.046Z" fill="black"/>
<path d="M565.261 492.866C565.261 492.866 572.342 468.799 563.932 451.088C560.357 443.681 559.279 435.313 560.861 427.241C561.64 423.414 562.769 419.667 564.232 416.047" stroke="#535461" stroke-width="2" stroke-miterlimit="10"/>
<path d="M559.001 404.836C559.001 407.787 564.361 416.336 564.361 416.336C564.361 416.336 569.72 407.781 569.72 404.836C569.594 403.508 568.977 402.274 567.991 401.376C567.004 400.479 565.718 399.981 564.385 399.981C563.051 399.981 561.765 400.479 560.779 401.376C559.792 402.274 559.175 403.508 559.049 404.836H559.001Z" fill="#34315E"/>
<path d="M550.179 421.174C551.787 423.653 560.898 427.927 560.898 427.927C560.898 427.927 560.732 417.844 559.13 415.371C558.304 414.32 557.115 413.615 555.797 413.395C554.479 413.175 553.126 413.456 552.004 414.183C550.882 414.909 550.072 416.029 549.732 417.323C549.393 418.616 549.548 419.99 550.168 421.174H550.179Z" fill="#34315E"/>
<path d="M550.564 449.093C553.196 450.423 563.23 449.506 563.23 449.506C563.23 449.506 557.998 440.886 555.367 439.556C554.735 439.166 554.03 438.911 553.295 438.808C552.56 438.704 551.812 438.755 551.097 438.956C550.383 439.157 549.718 439.505 549.145 439.977C548.572 440.448 548.103 441.034 547.767 441.697C547.432 442.359 547.238 443.084 547.198 443.826C547.157 444.568 547.271 445.31 547.532 446.005C547.793 446.7 548.195 447.334 548.713 447.865C549.232 448.397 549.855 448.815 550.543 449.093H550.564Z" fill="#34315E"/>
<path d="M555.608 470.151C557.977 471.905 568.022 472.699 568.022 472.699C568.022 472.699 564.323 463.318 561.954 461.564C560.812 460.88 559.457 460.645 558.152 460.906C556.846 461.167 555.685 461.905 554.893 462.976C554.102 464.046 553.736 465.373 553.869 466.699C554.001 468.024 554.621 469.253 555.608 470.146V470.151Z" fill="#34315E"/>
<path d="M572.09 428.501C569.978 430.556 560.126 432.685 560.126 432.685C560.126 432.685 562.538 422.896 564.65 420.842C565.69 420.003 567.005 419.583 568.338 419.664C569.672 419.745 570.927 420.321 571.858 421.279C572.789 422.238 573.328 423.509 573.371 424.845C573.414 426.181 572.957 427.485 572.09 428.501Z" fill="#34315E"/>
<path d="M577.696 453.201C575.064 454.532 565.031 453.615 565.031 453.615C565.031 453.615 570.262 444.995 572.893 443.665C573.525 443.274 574.23 443.019 574.965 442.916C575.7 442.813 576.449 442.864 577.163 443.065C577.877 443.266 578.542 443.614 579.115 444.085C579.689 444.557 580.158 445.143 580.493 445.805C580.828 446.468 581.022 447.193 581.062 447.935C581.103 448.676 580.989 449.418 580.728 450.114C580.467 450.809 580.065 451.442 579.547 451.974C579.029 452.505 578.406 452.923 577.717 453.201H577.696Z" fill="#34315E"/>
<path d="M579.835 477.955C577.465 479.709 567.421 480.503 567.421 480.503C567.421 480.503 571.119 471.122 573.488 469.368C574.631 468.684 575.986 468.45 577.291 468.711C578.596 468.972 579.758 469.709 580.549 470.78C581.341 471.85 581.706 473.178 581.574 474.503C581.442 475.828 580.822 477.057 579.835 477.95V477.955Z" fill="#34315E"/>
<path d="M580.665 490.512C580.665 490.512 567.721 487.921 564.27 484.467C560.818 481.013 545.285 474.968 543.559 479.285C541.833 483.603 520.26 498.284 534.93 500.875C549.6 503.465 569.447 504.329 573.757 502.602C578.066 500.875 580.665 490.512 580.665 490.512Z" fill="#A8A8A8"/>
<path opacity="0.2" d="M534.935 499.271C549.605 501.861 569.452 502.725 573.762 500.998C577.047 499.684 579.331 493.365 580.231 490.421L580.665 490.512C580.665 490.512 578.076 500.875 573.762 502.602C569.447 504.329 549.6 503.465 534.935 500.875C530.701 500.129 529.489 498.37 529.945 496.149C530.309 497.597 531.783 498.713 534.935 499.271Z" fill="black"/>
</g>
<defs>
<linearGradient id="paint0_linear" x1="636.977" y1="10.601" x2="330.875" y2="377.989" gradientUnits="userSpaceOnUse">
<stop stop-color="white" stop-opacity="0.5"/>
<stop offset="1" stop-color="white" stop-opacity="0"/>
</linearGradient>
<linearGradient id="paint1_linear" x1="294.235" y1="144.711" x2="280.8" y2="603.623" gradientUnits="userSpaceOnUse">
<stop stop-color="#34315E"/>
<stop offset="1" stop-color="#575988"/>
</linearGradient>
<linearGradient id="paint2_linear" x1="415.228" y1="249.674" x2="415.228" y2="177" gradientUnits="userSpaceOnUse">
<stop stop-color="#808080" stop-opacity="0.25"/>
<stop offset="0.54" stop-color="#808080" stop-opacity="0.12"/>
<stop offset="1" stop-color="#808080" stop-opacity="0.1"/>
</linearGradient>
<linearGradient id="paint3_linear" x1="196.396" y1="447.714" x2="196.396" y2="447.652" gradientUnits="userSpaceOnUse">
<stop stop-color="#808080" stop-opacity="0.25"/>
<stop offset="0.54" stop-color="#808080" stop-opacity="0.12"/>
<stop offset="1" stop-color="#808080" stop-opacity="0.1"/>
</linearGradient>
<linearGradient id="paint4_linear" x1="98172.5" y1="181807" x2="98172.5" y2="70613.8" gradientUnits="userSpaceOnUse">
<stop stop-color="#808080" stop-opacity="0.25"/>
<stop offset="0.54" stop-color="#808080" stop-opacity="0.12"/>
<stop offset="1" stop-color="#808080" stop-opacity="0.1"/>
</linearGradient>
<clipPath id="clip0">
<rect width="514" height="385" fill="white" transform="translate(68 177)"/>
</clipPath>
</defs>
</svg>
