<svg width="50" height="61" viewBox="0 0 50 61" fill="none" xmlns="http://www.w3.org/2000/svg">
<path fill-rule="evenodd" clip-rule="evenodd" d="M43.3409 48.1956C51.2321 36.0174 45.6651 26.5023 45.6651 26.5023C46.9551 26.1012 50 27.0798 50 27.0798C46.3915 13.2421 33.0091 1.79957 18.133 6.35363C17.7497 4.05521 11.4097 -1.80047e-07 11.4097 -1.80047e-07C12.0606 0.674731 13.0428 7.22892 13.0428 7.22892C12.3979 6.00692 9.60291 1.89078 9.60291 1.89078C10.7649 4.73024 9.60291 10.8162 9.60291 10.8162C6.24397 14.3304 2.49628 26.5023 2.49628 26.5023L1.07251 28.667C-0.740569 31.3787 -0.0724226 35.6345 1.71765 36.6437C8.43498 40.4375 9.08581 33.5369 9.08581 33.5369C14.6466 32.8621 18.7839 26.3686 18.7839 26.3686C26.2741 30.4241 22.1022 41.8663 18.8654 46.256C14.7105 51.8922 17.7556 61 17.7556 61C17.7556 61 35.5542 60.2338 43.3409 48.1956" fill="white"/>
</svg>
